# xmcd
#
# Track frame offsets:
#	150
#	16967
#	30880
#	45085
#	58210
#	70150
#	81142
#	91920
#	107930
#	121097
#
# Disc length: 1772 seconds
#
# Revision: 1
# Processed by: cddbd v1.4PL0 Copyright (c) Steve Scherf et al.
# Submitted via: EasyCDDAExtractor 5.0.6
#
DISCID=6f06ea0a
DTITLE=Leo Dan - Siempre Estoy Pensando En Ella
DYEAR=1990
DGENRE=
TTITLE0=Siempre Estoy Pensando En Ella
TTITLE1=Pachita
TTITLE2=Ahora
TTITLE3=Tema Indio
TTITLE4=Es Algo Extraño El Amor
TTITLE5=Soy De Cualquier Lugar
TTITLE6=Se Que Te Amare
TTITLE7=Tu Me Pides Que Te Olvide
TTITLE8=No Quiero Tener Problemas
TTITLE9=Pareces Una Nena
EXTD=
EXTT0=
EXTT1=
EXTT2=
EXTT3=
EXTT4=
EXTT5=
EXTT6=
EXTT7=
EXTT8=
EXTT9=
PLAYORDER=
